<svg width="226" height="52" viewBox="0 0 226 52" fill="none" xmlns="http://www.w3.org/2000/svg">
<path d="M215.227 49C217.227 49 221.227 46.5 220.727 41.5L215.541 5C214.727 1.94703 211.727 0.5 209.727 1L12.0414 8C8.22693 8 5.22693 9.5 4.72693 13L0.726929 43C0.726929 46.586 2.42235 47.6634 5.72693 49H215.227Z" fill="#3F015C"/>
<path fill-rule="evenodd" clip-rule="evenodd" d="M0.0413901 43L4.04137 13C4.54137 9 8.04138 7 12.0414 7L210.041 0C213.041 0 214.541 1.5 215.541 3C218.541 4.5 219.42 6.70903 220.041 12L225.041 44C225.541 48.5 222.041 52 217.041 52H11.0414C7.72693 52 5.72693 51 3.72692 49C1.22693 48 -0.273071 46 0.0413901 43ZM220.727 41.5C221.227 46.5 217.227 49 215.227 49H5.72693C2.42235 47.6634 0.726929 46.586 0.726929 43L4.72693 13C5.22693 9.5 8.22693 8 12.0414 8L209.727 1C211.727 0.5 214.727 1.94703 215.541 5L220.727 41.5Z" fill="white"/>
</svg>
