<svg width="43" height="19" viewBox="0 0 43 19" fill="none" xmlns="http://www.w3.org/2000/svg">
<path fill-rule="evenodd" clip-rule="evenodd" d="M17.2261 2.49045C17.4869 1.96099 18.0392 1.62378 18.6454 1.62378L21.5906 1.62378C22.1215 1.62378 22.6165 1.88294 22.9068 2.31288C22.972 2.40933 23.0248 2.51145 23.0653 2.61716C23.5288 2.27114 24.1018 2.02891 24.788 2.02891L30.6456 2.02891C31.3962 2.02891 31.9889 2.3179 32.4306 2.7352C32.9191 2.32615 33.5423 2.02891 34.3047 2.02891L40.1573 2.02891C41.3386 2.02891 42.1334 2.7413 42.5617 3.55361C42.5645 3.55884 42.5672 3.56408 42.5699 3.56933C42.8696 4.15424 42.9995 4.78555 42.9995 5.4284C42.9995 5.64531 42.9852 5.86426 42.959 6.08417C42.9583 6.08991 42.9576 6.09564 42.9568 6.10137L41.9325 13.8929C41.8148 14.7741 41.4984 15.5907 40.9463 16.2919L40.9412 16.2984C40.4068 16.9696 39.6009 17.5785 38.511 17.5785H32.6583C32.2029 17.5785 31.8044 17.4732 31.4621 17.2966C31.2038 17.4747 30.8882 17.5785 30.5502 17.5785H21.5906C21.139 17.5785 20.7093 17.3907 20.4108 17.0629C20.1123 16.7351 19.9739 16.2989 20.0309 15.8655L20.6886 10.8629C20.78 10.1722 21.0233 9.43553 21.5316 8.87032C21.5193 8.85769 21.5072 8.84483 21.4952 8.83175C21.2784 8.59371 21.146 8.2985 21.1115 7.98868L16.6743 17.7766C16.4236 18.3296 15.8585 18.6867 15.2344 18.6867L11.7385 18.6867C11.1988 18.6867 10.6969 18.419 10.4089 17.9775C10.3182 17.8385 10.2527 17.6883 10.2127 17.5331C10.1803 17.535 10.1476 17.536 10.1147 17.536H6.2397C5.78795 17.536 5.35802 17.348 5.05953 17.02C4.8322 16.7701 4.69783 16.4574 4.67201 16.131H2.20411C1.75236 16.131 1.32243 15.943 1.02394 15.615C0.725454 15.2869 0.587242 14.8505 0.644545 14.417L0.830263 13.012C0.856323 12.8148 0.922071 12.6245 1.02379 12.4519L6.73585 2.75437C7.01553 2.27956 7.537 1.98639 8.10189 1.98639L11.761 1.98639C12.2127 1.98639 12.6426 2.17433 12.9411 2.5023C13.2396 2.83028 13.3778 3.26661 13.3206 3.70008L12.3968 10.7014C12.4286 10.7309 12.4592 10.7617 12.4886 10.794C12.6527 10.9741 12.7685 11.1869 12.8301 11.4141L17.2261 2.49045ZM10.3004 14.6099H10.9429L11.3093 11.8H10.6668L11.761 3.50746L8.10189 3.50746L2.38983 13.2049L2.20411 14.6099H6.42542L6.2397 16.0149H10.1147L10.3004 14.6099ZM7.14821 9.13506L6.79685 11.8L5.57714 11.8L7.14821 9.13506ZM11.7385 17.1656L18.6454 3.14486L21.5906 3.14486L15.2344 17.1656L11.7385 17.1656ZM22.9258 5.90945L22.6748 7.82604H26.5498L26.62 7.27626C26.6239 7.24728 26.6285 7.21878 26.6339 7.19077C26.6363 7.17791 26.6389 7.16515 26.6417 7.15249C26.6436 7.14339 26.6457 7.13434 26.6478 7.12535C26.6491 7.11989 26.6505 7.11445 26.6518 7.10903C26.6538 7.1011 26.6558 7.09321 26.6579 7.08537C26.6881 6.97308 26.7309 6.86925 26.7864 6.77387C26.7901 6.76747 26.7939 6.7611 26.7978 6.75478C26.8231 6.71315 26.8508 6.67318 26.881 6.63485C27.0216 6.4516 27.1755 6.35997 27.3428 6.35997C27.5101 6.35997 27.6423 6.44905 27.7394 6.62722C27.8096 6.76466 27.8448 6.91738 27.8448 7.08537C27.8448 7.14645 27.8397 7.21009 27.8297 7.27626L27.7745 7.68096C27.7689 7.72645 27.7608 7.76877 27.7504 7.80791C27.7347 7.8664 27.7136 7.91779 27.6871 7.9621C27.636 8.04739 27.5647 8.10639 27.4733 8.13911L23.252 9.52883C22.6932 9.71209 22.3586 10.2211 22.2481 11.056L21.5906 16.0574H30.5502L30.9216 13.2475L25.837 13.2475L26.0077 11.9341C26.0183 11.8552 26.0355 11.7859 26.0595 11.7264C26.1114 11.5977 26.1945 11.5142 26.3088 11.476L30.5352 10.0786C31.094 9.90044 31.4286 9.39138 31.539 8.55144L31.8854 5.90945C31.8881 5.88717 31.8907 5.86499 31.893 5.84291C31.8931 5.84255 31.8931 5.8422 31.8932 5.84185C31.908 5.70281 31.9155 5.56753 31.9155 5.43603C31.9155 4.98806 31.8251 4.591 31.6444 4.24485C31.5849 4.13199 31.5202 4.03289 31.4501 3.94753C31.2327 3.6825 30.9645 3.54999 30.6456 3.54999L24.788 3.54999C24.363 3.54999 23.9664 3.78161 23.5984 4.24485C23.2336 4.70808 23.0094 5.26295 22.9258 5.90945ZM31.4186 13.698C31.3951 13.8711 31.3834 14.0365 31.3834 14.1943C31.3834 14.6372 31.4738 15.0266 31.6545 15.3626C31.7906 15.6244 31.9567 15.8122 32.1527 15.926C32.3035 16.0136 32.4721 16.0574 32.6583 16.0574H38.511C38.9359 16.0574 39.3308 15.8284 39.6955 15.3702C40.0603 14.907 40.2861 14.3496 40.3731 13.698L41.3971 5.90945C41.4172 5.74146 41.4272 5.58111 41.4272 5.4284C41.4272 4.98552 41.3385 4.591 41.1612 4.24485C40.9169 3.78161 40.5823 3.54999 40.1573 3.54999L34.3047 3.54999C33.9351 3.54999 33.5892 3.72246 33.2669 4.06742C33.2157 4.12221 33.1651 4.18135 33.1151 4.24485C32.8427 4.5908 32.6487 4.98786 32.5331 5.43603C32.4939 5.58797 32.4637 5.74577 32.4425 5.90945L32.0863 8.6186L31.4186 13.698ZM36.4129 12.9802C36.5193 12.8484 36.5955 12.6957 36.6416 12.5221C36.6437 12.514 36.6458 12.5059 36.6478 12.4978C36.6496 12.4905 36.6513 12.4831 36.653 12.4758C36.6556 12.4642 36.6582 12.4525 36.6606 12.4408C36.661 12.4389 36.6614 12.4369 36.6617 12.435C36.6685 12.4011 36.6742 12.3665 36.6789 12.3312L37.3414 7.27626C37.3515 7.21009 37.3565 7.14645 37.3565 7.08537C37.3565 6.91738 37.3214 6.76466 37.2511 6.62722C37.154 6.44905 37.0235 6.35997 36.8596 6.35997C36.6923 6.35997 36.5383 6.4516 36.3978 6.63485C36.2945 6.76578 36.2201 6.91595 36.1747 7.08537C36.1725 7.09344 36.1704 7.10156 36.1684 7.10972C36.1666 7.11702 36.1648 7.12435 36.1631 7.13171C36.1617 7.13772 36.1603 7.14375 36.159 7.14981C36.1562 7.16241 36.1536 7.17512 36.1512 7.18793C36.1456 7.21686 36.1408 7.24631 36.1368 7.27626L35.4933 12.1853L35.4933 12.1857L35.4742 12.3312C35.4642 12.3973 35.4592 12.461 35.4592 12.5221C35.4592 12.6951 35.4943 12.8479 35.5646 12.9802C35.6583 13.1584 35.7888 13.2475 35.9561 13.2475C36.1201 13.2475 36.2723 13.1584 36.4129 12.9802Z" fill="#950E0E"/>
<path fill-rule="evenodd" clip-rule="evenodd" d="M16.5943 1.2667C16.8551 0.737238 17.4073 0.400024 18.0136 0.400024L20.9588 0.400024C21.4896 0.400024 21.9846 0.659182 22.275 1.08912C22.3401 1.18557 22.393 1.2877 22.4334 1.3934C22.8969 1.04739 23.47 0.805153 24.1561 0.805153L30.0137 0.805153C30.7643 0.805153 31.3571 1.09415 31.7988 1.51144C32.2873 1.10239 32.9104 0.805153 33.6729 0.805153L39.5255 0.805153C40.7068 0.805153 41.5015 1.51755 41.9299 2.32986C41.9326 2.33508 41.9354 2.34032 41.9381 2.34558C42.2377 2.93049 42.3676 3.5618 42.3676 4.20464C42.3676 4.42155 42.3534 4.6405 42.3271 4.86041C42.3264 4.86615 42.3257 4.87189 42.325 4.87762L41.3006 12.6691C41.1829 13.5504 40.8666 14.3669 40.3144 15.0682L40.3093 15.0746C39.775 15.7458 38.9691 16.3548 37.8791 16.3548H32.0265C31.5711 16.3548 31.1726 16.2494 30.8303 16.0728C30.5719 16.251 30.2564 16.3548 29.9184 16.3548L20.9588 16.3548C20.5072 16.3548 20.0774 16.1669 19.779 15.8391C19.4805 15.5113 19.3421 15.0751 19.3991 14.6418L20.0568 9.63917C20.1481 8.94846 20.3915 8.21178 20.8998 7.64656C20.8874 7.63393 20.8753 7.62108 20.8634 7.608C20.6466 7.36995 20.5141 7.07474 20.4797 6.76493L16.0424 16.5528C15.7917 17.1058 15.2267 17.463 14.6025 17.463L11.1066 17.463C10.567 17.463 10.0651 17.1952 9.77704 16.7538C9.68632 16.6147 9.62081 16.4645 9.58089 16.3093C9.54844 16.3113 9.51574 16.3123 9.48283 16.3123H5.60786C5.15611 16.3123 4.72618 16.1243 4.42769 15.7962C4.20036 15.5464 4.066 15.2337 4.04017 14.9073H1.57228C1.12052 14.9073 0.690599 14.7193 0.392108 14.3912C0.0936177 14.0632 -0.0445941 13.6268 0.0127095 13.1932L0.198427 11.7882C0.224487 11.5911 0.290236 11.4008 0.391954 11.2281L6.10401 1.53062C6.38369 1.0558 6.90516 0.762631 7.47005 0.762631L11.1292 0.762631C11.5809 0.762631 12.0108 0.950571 12.3092 1.27855C12.6077 1.60652 12.746 2.04285 12.6888 2.47632L11.7649 9.47766C11.7967 9.50712 11.8274 9.53798 11.8567 9.5702C12.0209 9.7503 12.1367 9.96316 12.1983 10.1903L16.5943 1.2667ZM9.66854 13.3862H10.311L10.6774 10.5762H10.035L11.1292 2.28371L7.47005 2.28371L1.75799 11.9812L1.57228 13.3862H5.79358L5.60786 14.7912L9.48283 14.7912L9.66854 13.3862ZM6.51637 7.9113L6.16501 10.5762L4.9453 10.5762L6.51637 7.9113ZM11.1066 15.9419L18.0136 1.9211L20.9588 1.9211L14.6025 15.9419L11.1066 15.9419ZM22.2939 4.6857L22.043 6.60229H25.9179L25.9882 6.05251C25.9921 6.02353 25.9967 5.99503 26.002 5.96701C26.0045 5.95415 26.0071 5.94139 26.0098 5.92873C26.0118 5.91963 26.0139 5.91059 26.016 5.90159C26.0173 5.89613 26.0186 5.89069 26.02 5.88527C26.022 5.87734 26.024 5.86946 26.0261 5.86161C26.0562 5.74933 26.0991 5.6455 26.1546 5.55012C26.1583 5.54371 26.1621 5.53735 26.1659 5.53102C26.1912 5.4894 26.219 5.44942 26.2492 5.4111C26.3897 5.22784 26.5437 5.13621 26.711 5.13621C26.8783 5.13621 27.0105 5.22529 27.1075 5.40346C27.1778 5.54091 27.2129 5.69362 27.2129 5.86161C27.2129 5.9227 27.2079 5.98633 27.1979 6.05251L27.1427 6.45721C27.137 6.5027 27.129 6.54501 27.1185 6.58415C27.1029 6.64264 27.0818 6.69404 27.0552 6.73834C27.0041 6.82363 26.9329 6.88264 26.8415 6.91536L22.6202 8.30507C22.0614 8.48833 21.7267 8.99739 21.6163 9.83224L20.9588 14.8337L29.9184 14.8337L30.2898 12.0237L25.2052 12.0237L25.3758 10.7104C25.3864 10.6314 25.4037 10.5622 25.4277 10.5026C25.4795 10.374 25.5626 10.2905 25.677 10.2522L29.9033 8.85485C30.4621 8.67668 30.7968 8.16763 30.9072 7.32769L31.2535 4.6857C31.2563 4.66342 31.2588 4.64124 31.2612 4.61915C31.2612 4.6188 31.2613 4.61845 31.2613 4.6181C31.2762 4.47905 31.2836 4.34378 31.2836 4.21228C31.2836 3.76431 31.1933 3.36725 31.0126 3.02109C30.9531 2.90824 30.8883 2.80913 30.8183 2.72377C30.6008 2.45874 30.3326 2.32623 30.0137 2.32623L24.1561 2.32623C23.7311 2.32623 23.3346 2.55785 22.9665 3.02109C22.6018 3.48433 22.3776 4.0392 22.2939 4.6857ZM30.7867 12.4742C30.7633 12.6473 30.7516 12.8127 30.7516 12.9706C30.7516 13.4134 30.8419 13.8029 31.0226 14.1388C31.1588 14.4006 31.3248 14.5884 31.5208 14.7023C31.6717 14.7899 31.8402 14.8337 32.0265 14.8337H37.8791C38.3041 14.8337 38.6989 14.6046 39.0637 14.1465C39.4284 13.6832 39.6543 13.1258 39.7413 12.4742L40.7653 4.6857C40.7853 4.51771 40.7954 4.35736 40.7954 4.20464C40.7954 3.76176 40.7067 3.36725 40.5293 3.02109C40.2851 2.55785 39.9504 2.32623 39.5255 2.32623L33.6729 2.32623C33.3033 2.32623 32.9573 2.49871 32.635 2.84367C32.5839 2.89846 32.5333 2.9576 32.4833 3.02109C32.2109 3.36705 32.0169 3.76411 31.9012 4.21228C31.862 4.36421 31.8319 4.52202 31.8107 4.6857L31.4545 7.39484L30.7867 12.4742ZM35.781 11.7565C35.8875 11.6246 35.9637 11.4719 36.0097 11.2983C36.0118 11.2903 36.0139 11.2822 36.0159 11.274C36.0177 11.2667 36.0195 11.2594 36.0211 11.252C36.0238 11.2404 36.0263 11.2288 36.0287 11.217C36.0291 11.2151 36.0295 11.2132 36.0299 11.2113C36.0367 11.1774 36.0424 11.1428 36.047 11.1074L36.7096 6.05251C36.7196 5.98633 36.7247 5.9227 36.7247 5.86161C36.7247 5.69362 36.6895 5.54091 36.6192 5.40346C36.5222 5.22529 36.3917 5.13621 36.2277 5.13621C36.0604 5.13621 35.9065 5.22784 35.766 5.4111C35.6627 5.54203 35.5883 5.6922 35.5429 5.86161C35.5407 5.86969 35.5386 5.87781 35.5366 5.88597C35.5347 5.89326 35.533 5.90059 35.5313 5.90795C35.5299 5.91396 35.5285 5.92 35.5272 5.92605C35.5244 5.93866 35.5218 5.95137 35.5193 5.96418C35.5138 5.99311 35.509 6.02255 35.5049 6.05251L34.8615 10.9615L34.8615 10.962L34.8424 11.1074C34.8323 11.1736 34.8273 11.2372 34.8273 11.2983C34.8273 11.4714 34.8625 11.6241 34.9327 11.7565C35.0264 11.9346 35.1569 12.0237 35.3242 12.0237C35.4882 12.0237 35.6405 11.9346 35.781 11.7565Z" fill="#C61515"/>
<g filter="url(#filter0_f_168_284)">
<path d="M18.0136 1.92139L20.9588 1.92139L14.6025 15.9422L11.1066 15.9422L18.0136 1.92139Z" fill="#372F2F"/>
<path d="M30.0137 2.32652C30.4354 2.32652 30.7683 2.55814 31.0126 3.02137C31.1933 3.36753 31.2836 3.76459 31.2836 4.21256C31.2836 4.36528 31.2736 4.52309 31.2535 4.68598L30.9072 7.32797C30.7968 8.16791 30.4621 8.67697 29.9033 8.85514L25.677 10.2525C25.5097 10.3085 25.4093 10.4612 25.3758 10.7106L25.2052 12.024H30.2898L29.9184 14.834H20.9588L21.6163 9.83252C21.7267 8.99767 22.0614 8.48862 22.6202 8.30536L26.8415 6.91564C27.0121 6.85455 27.1125 6.70184 27.1426 6.45749L27.1979 6.05279C27.2079 5.98662 27.2129 5.92298 27.2129 5.8619C27.2129 5.69391 27.1778 5.54119 27.1075 5.40375C27.0105 5.22558 26.8783 5.1365 26.711 5.1365C26.5437 5.1365 26.3897 5.22813 26.2492 5.41139C26.1087 5.58955 26.0217 5.80336 25.9882 6.05279L25.9179 6.60257L22.043 6.60257L22.2939 4.68598C22.3776 4.03948 22.6018 3.48461 22.9665 3.02137C23.3346 2.55814 23.7311 2.32652 24.1561 2.32652L30.0137 2.32652Z" fill="#372F2F"/>
<path d="M33.6729 2.32652L39.5255 2.32652C39.9504 2.32652 40.2851 2.55814 40.5294 3.02137C40.7067 3.36753 40.7954 3.76205 40.7954 4.20493C40.7954 4.35764 40.7853 4.51799 40.7653 4.68598L39.7413 12.4745C39.6543 13.1261 39.4284 13.6835 39.0637 14.1468C38.6989 14.6049 38.3041 14.834 37.8791 14.834H32.0265C31.5982 14.834 31.2636 14.6024 31.0226 14.1391C30.8419 13.8031 30.7516 13.4137 30.7516 12.9708C30.7516 12.813 30.7633 12.6476 30.7867 12.4745L31.8107 4.68598C31.8943 4.03948 32.1185 3.48461 32.4833 3.02137C32.848 2.55814 33.2445 2.32652 33.6729 2.32652ZM36.2277 5.1365C36.0604 5.1365 35.9065 5.22813 35.766 5.41139C35.6254 5.58955 35.5384 5.80336 35.5049 6.05279L34.8424 11.1077C34.8324 11.1739 34.8273 11.2375 34.8273 11.2986C34.8273 11.4717 34.8625 11.6244 34.9327 11.7567C35.0264 11.9349 35.1569 12.024 35.3242 12.024C35.4882 12.024 35.6405 11.9349 35.781 11.7567C35.9249 11.5786 36.0136 11.3622 36.047 11.1077L36.7096 6.05279C36.7196 5.98662 36.7247 5.92298 36.7247 5.8619C36.7247 5.69391 36.6895 5.54119 36.6192 5.40375C36.5222 5.22558 36.3917 5.1365 36.2277 5.1365Z" fill="#372F2F"/>
<path d="M7.47004 2.28399L11.1292 2.28399L10.035 10.5765H10.6774L10.311 13.3865H9.66853L9.48282 14.7915L5.60785 14.7915L5.79357 13.3865H1.57227L1.75798 11.9815L7.47004 2.28399ZM6.165 10.5765L6.51636 7.91159L4.94529 10.5765H6.165Z" fill="#372F2F"/>
</g>
<g filter="url(#filter1_i_168_284)">
<path d="M18.0136 1.92126L20.9588 1.92126L14.6025 15.942L11.1066 15.9421L18.0136 1.92126Z" fill="white"/>
<path d="M30.0137 2.32639C30.4354 2.32639 30.7683 2.55801 31.0126 3.02125C31.1933 3.36741 31.2836 3.76447 31.2836 4.21244C31.2836 4.36516 31.2736 4.52296 31.2535 4.68586L30.9072 7.32785C30.7968 8.16779 30.4621 8.67685 29.9033 8.85502L25.677 10.2524C25.5097 10.3084 25.4093 10.4611 25.3758 10.7105L25.2052 12.0239H30.2898L29.9184 14.8339H20.9588L21.6163 9.8324C21.7267 8.99755 22.0614 8.4885 22.6202 8.30524L26.8415 6.91552C27.0121 6.85443 27.1125 6.70172 27.1426 6.45737L27.1979 6.05267C27.2079 5.98649 27.2129 5.92286 27.2129 5.86178C27.2129 5.69379 27.1778 5.54107 27.1075 5.40363C27.0105 5.22546 26.8783 5.13637 26.711 5.13637C26.5437 5.13637 26.3897 5.228 26.2492 5.41126C26.1087 5.58943 26.0216 5.80323 25.9882 6.05267L25.9179 6.60245L22.043 6.60245L22.2939 4.68586C22.3776 4.03936 22.6018 3.48449 22.9665 3.02125C23.3346 2.55801 23.7311 2.32639 24.1561 2.32639L30.0137 2.32639Z" fill="white"/>
<path d="M33.6729 2.32639L39.5255 2.32639C39.9504 2.32639 40.2851 2.55801 40.5293 3.02125C40.7067 3.36741 40.7954 3.76193 40.7954 4.2048C40.7954 4.35752 40.7853 4.51787 40.7653 4.68586L39.7413 12.4744C39.6543 13.126 39.4284 13.6834 39.0637 14.1466C38.6989 14.6048 38.3041 14.8339 37.8791 14.8339H32.0265C31.5982 14.8339 31.2636 14.6022 31.0226 14.139C30.8419 13.803 30.7516 13.4136 30.7516 12.9707C30.7516 12.8129 30.7633 12.6475 30.7867 12.4744L31.8107 4.68586C31.8943 4.03936 32.1185 3.48449 32.4833 3.02125C32.848 2.55801 33.2445 2.32639 33.6729 2.32639ZM36.2277 5.13637C36.0604 5.13637 35.9065 5.228 35.766 5.41126C35.6254 5.58943 35.5384 5.80323 35.5049 6.05267L34.8424 11.1076C34.8323 11.1738 34.8273 11.2374 34.8273 11.2985C34.8273 11.4716 34.8625 11.6243 34.9327 11.7566C35.0264 11.9348 35.1569 12.0239 35.3242 12.0239C35.4882 12.0239 35.6405 11.9348 35.781 11.7566C35.9249 11.5785 36.0136 11.3621 36.047 11.1076L36.7096 6.05267C36.7196 5.98649 36.7247 5.92286 36.7247 5.86178C36.7247 5.69379 36.6895 5.54107 36.6192 5.40363C36.5222 5.22546 36.3917 5.13637 36.2277 5.13637Z" fill="white"/>
<path d="M7.47004 2.28387L11.1292 2.28387L10.0349 10.5764H10.6774L10.311 13.3863H9.66853L9.48282 14.7913L5.60785 14.7913L5.79357 13.3863H1.57227L1.75798 11.9814L7.47004 2.28387ZM6.165 10.5764L6.51636 7.91147L4.94529 10.5764H6.165Z" fill="white"/>
</g>
<defs>
<filter id="filter0_f_168_284" x="0.622223" y="0.971344" width="41.1227" height="15.9208" filterUnits="userSpaceOnUse" color-interpolation-filters="sRGB">
<feFlood flood-opacity="0" result="BackgroundImageFix"/>
<feBlend mode="normal" in="SourceGraphic" in2="BackgroundImageFix" result="shape"/>
<feGaussianBlur stdDeviation="0.475021" result="effect1_foregroundBlur_168_284"/>
</filter>
<filter id="filter1_i_168_284" x="1.57227" y="0.971222" width="39.2227" height="14.9708" filterUnits="userSpaceOnUse" color-interpolation-filters="sRGB">
<feFlood flood-opacity="0" result="BackgroundImageFix"/>
<feBlend mode="normal" in="SourceGraphic" in2="BackgroundImageFix" result="shape"/>
<feColorMatrix in="SourceAlpha" type="matrix" values="0 0 0 0 0 0 0 0 0 0 0 0 0 0 0 0 0 0 127 0" result="hardAlpha"/>
<feOffset dy="-0.950042"/>
<feGaussianBlur stdDeviation="0.475021"/>
<feComposite in2="hardAlpha" operator="arithmetic" k2="-1" k3="1"/>
<feColorMatrix type="matrix" values="0 0 0 0 0 0 0 0 0 0 0 0 0 0 0 0 0 0 0.24 0"/>
<feBlend mode="normal" in2="shape" result="effect1_innerShadow_168_284"/>
</filter>
</defs>
</svg>
