<svg xmlns="http://www.w3.org/2000/svg" width="20" height="20" fill="none"><path fill="#931F0B" fill-rule="evenodd" d="M10 0C4.486 0 0 4.486 0 10s4.486 10 10 10 10-4.486 10-10S15.514 0 10 0Zm.738 11.786a.407.407 0 0 0 .042-.155l.997-7.145a.342.342 0 0 0-.05-.189.305.305 0 0 0-.156-.137.833.833 0 0 0-.29-.086A20.534 20.534 0 0 0 10 4c-.19 0-.955.066-1.082.083a.912.912 0 0 0-.298.086.307.307 0 0 0-.15.137.438.438 0 0 0-.042.197l.791 7.128a.406.406 0 0 0 .043.155.311.311 0 0 0 .12.12.977.977 0 0 0 .241.068c.1.017.225.026.376.026.147 0 .27-.009.369-.026a.866.866 0 0 0 .241-.068.303.303 0 0 0 .128-.12Zm.213 3.553c.033-.16.05-.357.05-.591 0-.24-.017-.44-.05-.6a.827.827 0 0 0-.164-.395.585.585 0 0 0-.305-.215A1.448 1.448 0 0 0 10 13.47c-.194 0-.357.022-.49.068a.585.585 0 0 0-.304.215.933.933 0 0 0-.163.394c-.029.16-.043.36-.043.6 0 .235.014.432.043.592.033.16.087.29.163.386a.604.604 0 0 0 .305.206c.132.046.295.069.49.069.193 0 .354-.023.481-.069a.604.604 0 0 0 .305-.205.819.819 0 0 0 .163-.387Z" clip-rule="evenodd"/><path fill="#fff" fill-rule="evenodd" d="M10.738 11.786a.407.407 0 0 0 .042-.155l.997-7.145a.342.342 0 0 0-.05-.189.305.305 0 0 0-.156-.137.833.833 0 0 0-.29-.086A20.534 20.534 0 0 0 10 4c-.19 0-.955.066-1.082.083a.912.912 0 0 0-.298.086.307.307 0 0 0-.15.137.438.438 0 0 0-.042.197l.791 7.128a.406.406 0 0 0 .043.155.311.311 0 0 0 .12.12.977.977 0 0 0 .241.068c.1.017.225.026.376.026.147 0 .27-.009.369-.026a.866.866 0 0 0 .241-.068.303.303 0 0 0 .128-.12Z" clip-rule="evenodd"/><path fill="#fff" d="M11 14.748c0 .234-.016.431-.05.591a.819.819 0 0 1-.163.386.604.604 0 0 1-.305.206A1.448 1.448 0 0 1 10 16c-.194 0-.357-.023-.49-.069a.604.604 0 0 1-.304-.205.926.926 0 0 1-.163-.387A3.467 3.467 0 0 1 9 14.748c0-.24.014-.44.043-.6a.933.933 0 0 1 .163-.395.585.585 0 0 1 .305-.215c.132-.046.295-.068.49-.068.193 0 .354.022.481.068.128.04.23.112.305.215.08.097.135.228.163.394.034.16.05.36.05.6Z"/></svg>