<svg xmlns="http://www.w3.org/2000/svg" width="450" height="187" fill="none"><path stroke="#fff" stroke-miterlimit="10" stroke-opacity=".8" stroke-width="1.149" d="M166.804 160.146c-1.794 3.565-3.381 6.834-5.053 10.069-2.676 5.1-6.96 7.728-13.117 7.74-6.354.008-12.706.118-19.051.236-4.702.11-9.406-.03-14.091-.419-8.666-.758-17.337-1.428-26.004-2.171-4.68-.42-8.096-2.697-10.447-6.44a16.04 16.04 0 0 1-2.263-5.893l-1.664-.092c-9.821-.726-19.636-1.54-29.464-2.157-8.367-.528-12.18-7.057-12.773-12.066-.075-.685-.117-1.377-.178-2.142-.633-.035-1.168-.138-1.707-.168-5.233-.355-10.471-.74-15.716-1.03-4.838-.267-8.276-2.458-10.537-6.38a13.429 13.429 0 0 1-1.815-7.136 1.927 1.927 0 0 0-.09-1.091 2.066 2.066 0 0 0-.679-.893 2.046 2.046 0 0 1-.608-.957 1.942 1.942 0 0 1 .01-1.114c.53-3.041.998-6.101 1.667-9.112a14.558 14.558 0 0 1 1.639-4.08 55309.572 55309.572 0 0 1 49.67-86.065 18.882 18.882 0 0 1 1.787-2.224c.354-.387.681-.795.98-1.221.743-1.22 1.403-2.473 2.147-3.693a14.13 14.13 0 0 1 3.663-4.216 15.226 15.226 0 0 1 5.113-2.583 23.447 23.447 0 0 1 5.031-.558l22.469-.956 6.291-.26a14.625 14.625 0 0 1 4.729.62c8.745 2.484 17.479 5.019 26.244 7.431a12.606 12.606 0 0 1 5.632 2.96c1.563 1.436 2.689 3.235 3.262 5.212.086.247.22.489.407.888.32-.598.576-1.046.808-1.502 2.284-4.36 4.523-8.742 6.845-13.085 1.726-3.373 4.675-6.066 8.324-7.601a14.431 14.431 0 0 1 5.081-1.097c8.942-.378 17.888-.697 26.813-1.186a22.745 22.745 0 0 1 9.517 1.428c3.516 1.338 7.105 2.503 10.639 3.79a2.907 2.907 0 0 0 2.411-.05 28.788 28.788 0 0 1 10.636-2.357l19.478-.8 18.872-.76c6.345-.257 12.685-.544 19.03-.78 3.836-.14 7.701-.614 11.507.219 1.896.407 3.753.96 5.551 1.655 2.525.99 4.985 2.145 7.438 3.299a1.853 1.853 0 0 0 2.14-.234c4.94-3.634 10.853-5.931 17.095-6.64 2.275-.248 4.588-.244 6.885-.352a16136.22 16136.22 0 0 1 45.258-1.778c7.391-.288 14.787-.524 22.169-.93 5.511-.394 11.035.573 16.019 2.807a27.973 27.973 0 0 1 3.882 2.105c5.382 3.566 10.765 7.125 16.053 10.818 3.626 2.528 6.631 5.753 8.813 9.458 2.714 4.641 4.425 9.736 5.035 14.994.099.79.206 1.573.265 2.368.378 4.938-.469 9.765-1.409 14.58-1.177 6.208-2.308 12.426-3.462 18.636l-3.512 19.051a23601.77 23601.77 0 0 0-3.392 18.508l-3.471 18.775c-.809 4.353-1.527 8.762-2.453 13.108-.46 2.173-1.31 4.325-1.925 6.49a40.777 40.777 0 0 1-6.121 12.567c-3.583 5.05-7.749 9.656-13.189 13.071-5.57 3.489-11.64 5.711-18.462 5.942-5.84.198-11.676.571-17.521.856a18.03 18.03 0 0 1-2.092-.049l-49.176-3.723a6128.761 6128.761 0 0 0-24.982-1.843 24.421 24.421 0 0 1-6.567-1.323 6.964 6.964 0 0 0-2.332-.334c-6.851.061-13.677.233-20.528-.329-17.087-1.413-34.207-2.565-51.302-3.84-11.968-.889-23.937-1.748-35.907-2.718-6.242-.513-10.555-3.632-13.171-8.892-.363-.702-.641-1.384-1.074-2.361Z"/></svg>