<svg xmlns="http://www.w3.org/2000/svg" width="247" height="111" fill="none"><path stroke="#fff" stroke-miterlimit="10" stroke-opacity=".8" d="M91.237 94.687c-.984 2.094-1.855 4.013-2.772 5.912-1.468 2.994-3.818 4.538-7.197 4.545-3.486.004-6.97.069-10.451.139-2.58.064-5.161-.019-7.731-.247-4.755-.445-9.512-.838-14.267-1.274-2.568-.247-4.442-1.584-5.732-3.782a9.823 9.823 0 0 1-1.241-3.46l-.914-.054c-5.388-.426-10.773-.904-16.165-1.266-4.59-.31-6.682-4.144-7.008-7.085-.04-.402-.064-.808-.097-1.257-.348-.021-.64-.082-.937-.099-2.87-.209-5.745-.434-8.622-.605-2.654-.157-4.54-1.443-5.781-3.745a8.325 8.325 0 0 1-.996-4.19 1.207 1.207 0 0 0-.421-1.166 1.215 1.215 0 0 1-.329-1.215c.291-1.786.548-3.583.915-5.35a8.904 8.904 0 0 1 .9-2.396c9.069-16.854 18.152-33.698 27.25-50.533.294-.459.622-.896.98-1.306.195-.227.374-.467.538-.717.408-.716.77-1.452 1.178-2.168a8.162 8.162 0 0 1 4.815-3.992c.904-.215 1.83-.325 2.76-.327l12.327-.562 3.452-.153a7.534 7.534 0 0 1 2.594.364c4.798 1.459 9.59 2.947 14.399 4.364a6.779 6.779 0 0 1 4.88 4.798c.047.145.12.287.223.52.175-.35.316-.613.443-.88 1.253-2.56 2.481-5.134 3.755-7.684a9.29 9.29 0 0 1 4.567-4.463 7.479 7.479 0 0 1 2.788-.644c4.906-.222 9.814-.409 14.711-.696a11.734 11.734 0 0 1 5.221.838c1.929.786 3.898 1.47 5.837 2.226a1.505 1.505 0 0 0 1.323-.03 14.924 14.924 0 0 1 5.835-1.384l10.687-.47 10.353-.445c3.482-.151 6.96-.32 10.441-.458 2.105-.082 4.225-.361 6.314.128 1.04.24 2.058.564 3.045.972 1.385.581 2.735 1.26 4.081 1.937a.961.961 0 0 0 1.174-.137 18.825 18.825 0 0 1 9.379-3.899c1.248-.146 2.517-.144 3.777-.207a8983.018 8983.018 0 0 1 24.831-1.044c4.055-.169 8.112-.307 12.162-.545a17.269 17.269 0 0 1 8.789 1.647c.742.353 1.455.767 2.13 1.236 2.953 2.094 5.906 4.184 8.807 6.352a17.385 17.385 0 0 1 4.835 5.553 23.672 23.672 0 0 1 2.762 8.804c.055.464.114.923.146 1.39.207 2.9-.257 5.734-.773 8.56-.646 3.646-1.266 7.297-1.9 10.943l-1.926 11.186c-.622 3.623-1.242 7.246-1.861 10.867l-1.905 11.023c-.443 2.556-.837 5.145-1.346 7.697-.252 1.275-.718 2.539-1.056 3.81a24.642 24.642 0 0 1-3.358 7.379c-1.965 2.965-4.251 5.669-7.236 7.674-3.056 2.049-6.386 3.353-10.129 3.489-3.204.116-6.406.336-9.613.503a9.348 9.348 0 0 1-1.147-.029l-26.98-2.186a3147.8 3147.8 0 0 0-13.706-1.082 12.616 12.616 0 0 1-3.603-.777 3.591 3.591 0 0 0-1.279-.196c-3.759.036-7.504.137-11.263-.193-9.375-.83-18.767-1.506-28.147-2.255-6.565-.522-13.132-1.026-19.7-1.596-3.424-.301-5.79-2.132-7.225-5.22-.2-.413-.352-.813-.59-1.387Z"/></svg>