<svg xmlns="http://www.w3.org/2000/svg" width="565" height="343" fill="none"><path stroke="#fff" stroke-miterlimit="22.926" stroke-opacity=".6" stroke-width="2" d="M23.287 100.595c.833-18.117 5.451-37.323 14.904-51.163 5.564-8.147 12.38-15.536 20.288-21.479l1.893-1.423 2.055-1.179 2.107-1.21c16.902-13.302 35.081-21.978 57.337-22.9 13.834-.574 28.348 1.363 40.887 7.506 8.157 3.997 15.549 8.758 23.221 13.55 3.381 2.111 6.648 4.018 9.826 5.91 7.131-6.036 15.259-10.872 25.501-14.17 15.067-4.855 31.203-4.85 45.767 1.938a54.75 54.75 0 0 1 5.615 3.022c29.907-7.223 62.978-2.347 87.679 16.746a1542.04 1542.04 0 0 0 5.717 4.396c16.712-8.606 35.317-13.449 54.199-14.182l1.508-.059 1.508.06 12.991.512 2.469.097 2.438.412 7.992 1.35 1.491.252 1.467.367c28.971 7.263 45.373 20.175 65.421 40.735 8.575 8.793 17.035 16.918 24.359 26.857 18.128 24.602 22.577 61.145 21.193 91.037-.304 6.563-1.95 11.121-2.715 17.115-1.386 12.173-4.447 26.124-9.474 37.295-3.863 8.581-7.262 17.144-11.855 25.407-7.587 13.65-17.396 26.812-28.577 37.723-38.07 37.149-92.185 46.672-141.026 25.265l-19.984-7.622-1.77-.675-1.696-.845c-3.407-1.698-6.721-3.367-9.95-5.189a73.587 73.587 0 0 1-19.819 1.25l-2.573-.184-2.527-.525-13.189-2.743-.457-.095-.455-.106c-3.673-.857-7.338-1.755-11.02-2.573-7.038-1.563-14.091-3.058-21.138-4.579-15.543-1.961-32.375-6.534-46.553-12.814-2.466-1.092-5.795-1.905-8.397-2.702-5.858-1.793-11.407-3.795-16.736-6.609-9.605 3.222-20.025 4.38-30.651 3.259l-4.027-.424-3.851-1.252-28.211-9.165c-3.91.242-7.563.451-12.004.043-11.548-1.06-23.84-4.617-34.425-9.342-2.807-1.253-7.114-2.145-10.116-2.935-8.732-2.297-16.876-4.908-24.725-9.526-25.322-14.894-39.486-39.608-43.113-68.209-.767-6.047-.16-10.424-.395-16.116-.802-19.408 1.64-38.142 11.255-55.373 3.203-5.74 6.6-10.383 10.341-14.736Z" clip-rule="evenodd"/></svg>
